<mxfile host="app.diagrams.net" modified="2022-08-08T17:24:14.384Z" agent="5.0 (Windows NT 10.0; Win64; x64) AppleWebKit/537.36 (KHTML, like Gecko) Chrome/104.0.0.0 Safari/537.36" etag="L2snxKTgvY_lM4KyKNTT" version="20.2.3" type="github">
  <diagram id="eWt34D1JCCoa_vRGBtQX" name="PÃ¡gina-1">
    <mxGraphModel dx="1265" dy="422" grid="1" gridSize="10" guides="1" tooltips="1" connect="1" arrows="1" fold="1" page="1" pageScale="1" pageWidth="827" pageHeight="1169" math="0" shadow="0">
      <root>
        <mxCell id="0" />
        <mxCell id="1" parent="0" />
        <mxCell id="Y0JHzA9AIyb3mTdg3rmq-22" value="CLIENTES" style="swimlane;fontStyle=0;childLayout=stackLayout;horizontal=1;startSize=30;horizontalStack=0;resizeParent=1;resizeParentMax=0;resizeLast=0;collapsible=1;marginBottom=0;fillColor=none;gradientColor=default;" vertex="1" collapsed="1" parent="1">
          <mxGeometry x="400" y="300" width="180" height="30" as="geometry">
            <mxRectangle x="400" y="300" width="190" height="270" as="alternateBounds" />
          </mxGeometry>
        </mxCell>
        <mxCell id="Y0JHzA9AIyb3mTdg3rmq-23" value="ID_Cliente" style="text;strokeColor=#001DBC;fillColor=#0050ef;align=left;verticalAlign=middle;spacingLeft=4;spacingRight=4;overflow=hidden;points=[[0,0.5],[1,0.5]];portConstraint=eastwest;rotatable=0;fontColor=#ffffff;" vertex="1" parent="Y0JHzA9AIyb3mTdg3rmq-22">
          <mxGeometry y="30" width="190" height="30" as="geometry" />
        </mxCell>
        <mxCell id="Y0JHzA9AIyb3mTdg3rmq-24" value="Nombre1_Cliente" style="text;strokeColor=none;fillColor=none;align=left;verticalAlign=middle;spacingLeft=4;spacingRight=4;overflow=hidden;points=[[0,0.5],[1,0.5]];portConstraint=eastwest;rotatable=0;" vertex="1" parent="Y0JHzA9AIyb3mTdg3rmq-22">
          <mxGeometry y="60" width="190" height="30" as="geometry" />
        </mxCell>
        <mxCell id="Y0JHzA9AIyb3mTdg3rmq-25" value="Nombre2_Cliente" style="text;strokeColor=none;fillColor=none;align=left;verticalAlign=middle;spacingLeft=4;spacingRight=4;overflow=hidden;points=[[0,0.5],[1,0.5]];portConstraint=eastwest;rotatable=0;" vertex="1" parent="Y0JHzA9AIyb3mTdg3rmq-22">
          <mxGeometry y="90" width="190" height="30" as="geometry" />
        </mxCell>
        <mxCell id="Y0JHzA9AIyb3mTdg3rmq-26" value="Apellido1_Cliente" style="text;strokeColor=none;fillColor=none;align=left;verticalAlign=middle;spacingLeft=4;spacingRight=4;overflow=hidden;points=[[0,0.5],[1,0.5]];portConstraint=eastwest;rotatable=0;" vertex="1" parent="Y0JHzA9AIyb3mTdg3rmq-22">
          <mxGeometry y="120" width="190" height="30" as="geometry" />
        </mxCell>
        <mxCell id="Y0JHzA9AIyb3mTdg3rmq-27" value="Apellido2_Cliente" style="text;strokeColor=none;fillColor=none;align=left;verticalAlign=middle;spacingLeft=4;spacingRight=4;overflow=hidden;points=[[0,0.5],[1,0.5]];portConstraint=eastwest;rotatable=0;" vertex="1" parent="Y0JHzA9AIyb3mTdg3rmq-22">
          <mxGeometry y="150" width="190" height="30" as="geometry" />
        </mxCell>
        <mxCell id="Y0JHzA9AIyb3mTdg3rmq-28" value="DIreccion_Cliente" style="text;strokeColor=none;fillColor=none;align=left;verticalAlign=middle;spacingLeft=4;spacingRight=4;overflow=hidden;points=[[0,0.5],[1,0.5]];portConstraint=eastwest;rotatable=0;" vertex="1" parent="Y0JHzA9AIyb3mTdg3rmq-22">
          <mxGeometry y="180" width="190" height="30" as="geometry" />
        </mxCell>
        <mxCell id="Y0JHzA9AIyb3mTdg3rmq-29" value="Email_Cliente" style="text;strokeColor=none;fillColor=none;align=left;verticalAlign=middle;spacingLeft=4;spacingRight=4;overflow=hidden;points=[[0,0.5],[1,0.5]];portConstraint=eastwest;rotatable=0;" vertex="1" parent="Y0JHzA9AIyb3mTdg3rmq-22">
          <mxGeometry y="210" width="190" height="30" as="geometry" />
        </mxCell>
        <mxCell id="Y0JHzA9AIyb3mTdg3rmq-30" value="Telefono_Cliente" style="text;strokeColor=none;fillColor=none;align=left;verticalAlign=middle;spacingLeft=4;spacingRight=4;overflow=hidden;points=[[0,0.5],[1,0.5]];portConstraint=eastwest;rotatable=0;" vertex="1" parent="Y0JHzA9AIyb3mTdg3rmq-22">
          <mxGeometry y="240" width="190" height="30" as="geometry" />
        </mxCell>
        <mxCell id="Y0JHzA9AIyb3mTdg3rmq-32" value="FACTURA" style="swimlane;fontStyle=0;childLayout=stackLayout;horizontal=1;startSize=30;horizontalStack=0;resizeParent=1;resizeParentMax=0;resizeLast=0;collapsible=1;marginBottom=0;fillColor=none;gradientColor=default;" vertex="1" collapsed="1" parent="1">
          <mxGeometry x="50" y="300" width="165" height="30" as="geometry">
            <mxRectangle x="20" y="730" width="190" height="180" as="alternateBounds" />
          </mxGeometry>
        </mxCell>
        <mxCell id="Y0JHzA9AIyb3mTdg3rmq-33" value="ID_Factura" style="text;strokeColor=#b85450;fillColor=#f8cecc;align=left;verticalAlign=middle;spacingLeft=4;spacingRight=4;overflow=hidden;points=[[0,0.5],[1,0.5]];portConstraint=eastwest;rotatable=0;" vertex="1" parent="Y0JHzA9AIyb3mTdg3rmq-32">
          <mxGeometry y="30" width="190" height="30" as="geometry" />
        </mxCell>
        <mxCell id="Y0JHzA9AIyb3mTdg3rmq-34" value="Fecha_Factura" style="text;strokeColor=none;fillColor=none;align=left;verticalAlign=middle;spacingLeft=4;spacingRight=4;overflow=hidden;points=[[0,0.5],[1,0.5]];portConstraint=eastwest;rotatable=0;" vertex="1" parent="Y0JHzA9AIyb3mTdg3rmq-32">
          <mxGeometry y="60" width="190" height="30" as="geometry" />
        </mxCell>
        <mxCell id="Y0JHzA9AIyb3mTdg3rmq-35" value="ID_Cliente" style="text;strokeColor=#001DBC;fillColor=#0050ef;align=left;verticalAlign=middle;spacingLeft=4;spacingRight=4;overflow=hidden;points=[[0,0.5],[1,0.5]];portConstraint=eastwest;rotatable=0;fontColor=#ffffff;" vertex="1" parent="Y0JHzA9AIyb3mTdg3rmq-32">
          <mxGeometry y="90" width="190" height="30" as="geometry" />
        </mxCell>
        <mxCell id="Y0JHzA9AIyb3mTdg3rmq-36" value="Total_Factura" style="text;strokeColor=none;fillColor=none;align=left;verticalAlign=middle;spacingLeft=4;spacingRight=4;overflow=hidden;points=[[0,0.5],[1,0.5]];portConstraint=eastwest;rotatable=0;" vertex="1" parent="Y0JHzA9AIyb3mTdg3rmq-32">
          <mxGeometry y="120" width="190" height="30" as="geometry" />
        </mxCell>
        <mxCell id="Y0JHzA9AIyb3mTdg3rmq-37" value="Estado_Factura" style="text;strokeColor=none;fillColor=none;align=left;verticalAlign=middle;spacingLeft=4;spacingRight=4;overflow=hidden;points=[[0,0.5],[1,0.5]];portConstraint=eastwest;rotatable=0;" vertex="1" parent="Y0JHzA9AIyb3mTdg3rmq-32">
          <mxGeometry y="150" width="190" height="30" as="geometry" />
        </mxCell>
        <mxCell id="Y0JHzA9AIyb3mTdg3rmq-41" value="Producto" style="swimlane;fontStyle=0;childLayout=stackLayout;horizontal=1;startSize=30;horizontalStack=0;resizeParent=1;resizeParentMax=0;resizeLast=0;collapsible=1;marginBottom=0;fillColor=none;gradientColor=default;" vertex="1" collapsed="1" parent="1">
          <mxGeometry x="50" y="470" width="165" height="30" as="geometry">
            <mxRectangle x="40" y="880" width="190" height="210" as="alternateBounds" />
          </mxGeometry>
        </mxCell>
        <mxCell id="Y0JHzA9AIyb3mTdg3rmq-42" value="ID_Producto" style="text;strokeColor=#d6b656;fillColor=#fff2cc;align=left;verticalAlign=middle;spacingLeft=4;spacingRight=4;overflow=hidden;points=[[0,0.5],[1,0.5]];portConstraint=eastwest;rotatable=0;" vertex="1" parent="Y0JHzA9AIyb3mTdg3rmq-41">
          <mxGeometry y="30" width="190" height="30" as="geometry" />
        </mxCell>
        <mxCell id="Y0JHzA9AIyb3mTdg3rmq-43" value="Nombre_Producto" style="text;strokeColor=none;fillColor=none;align=left;verticalAlign=middle;spacingLeft=4;spacingRight=4;overflow=hidden;points=[[0,0.5],[1,0.5]];portConstraint=eastwest;rotatable=0;" vertex="1" parent="Y0JHzA9AIyb3mTdg3rmq-41">
          <mxGeometry y="60" width="190" height="30" as="geometry" />
        </mxCell>
        <mxCell id="Y0JHzA9AIyb3mTdg3rmq-44" value="Precio_Producto" style="text;strokeColor=none;fillColor=none;align=left;verticalAlign=middle;spacingLeft=4;spacingRight=4;overflow=hidden;points=[[0,0.5],[1,0.5]];portConstraint=eastwest;rotatable=0;" vertex="1" parent="Y0JHzA9AIyb3mTdg3rmq-41">
          <mxGeometry y="90" width="190" height="30" as="geometry" />
        </mxCell>
        <mxCell id="Y0JHzA9AIyb3mTdg3rmq-45" value="Stock_Producto" style="text;strokeColor=none;fillColor=none;align=left;verticalAlign=middle;spacingLeft=4;spacingRight=4;overflow=hidden;points=[[0,0.5],[1,0.5]];portConstraint=eastwest;rotatable=0;" vertex="1" parent="Y0JHzA9AIyb3mTdg3rmq-41">
          <mxGeometry y="120" width="190" height="30" as="geometry" />
        </mxCell>
        <mxCell id="Y0JHzA9AIyb3mTdg3rmq-76" value="IVA_Producto" style="text;strokeColor=none;fillColor=none;align=left;verticalAlign=middle;spacingLeft=4;spacingRight=4;overflow=hidden;points=[[0,0.5],[1,0.5]];portConstraint=eastwest;rotatable=0;" vertex="1" parent="Y0JHzA9AIyb3mTdg3rmq-41">
          <mxGeometry y="150" width="190" height="30" as="geometry" />
        </mxCell>
        <mxCell id="Y0JHzA9AIyb3mTdg3rmq-46" value="ID_Categoria" style="text;strokeColor=#82b366;fillColor=#d5e8d4;align=left;verticalAlign=middle;spacingLeft=4;spacingRight=4;overflow=hidden;points=[[0,0.5],[1,0.5]];portConstraint=eastwest;rotatable=0;" vertex="1" parent="Y0JHzA9AIyb3mTdg3rmq-41">
          <mxGeometry y="180" width="190" height="30" as="geometry" />
        </mxCell>
        <mxCell id="Y0JHzA9AIyb3mTdg3rmq-88" value="CLIENTES" style="swimlane;fontStyle=0;childLayout=stackLayout;horizontal=1;startSize=30;horizontalStack=0;resizeParent=1;resizeParentMax=0;resizeLast=0;collapsible=1;marginBottom=0;fillColor=none;gradientColor=default;" vertex="1" collapsed="1" parent="Y0JHzA9AIyb3mTdg3rmq-41">
          <mxGeometry x="-30" width="180" height="30" as="geometry">
            <mxRectangle x="400" y="300" width="190" height="270" as="alternateBounds" />
          </mxGeometry>
        </mxCell>
        <mxCell id="Y0JHzA9AIyb3mTdg3rmq-89" value="ID_Cliente" style="text;strokeColor=#001DBC;fillColor=#0050ef;align=left;verticalAlign=middle;spacingLeft=4;spacingRight=4;overflow=hidden;points=[[0,0.5],[1,0.5]];portConstraint=eastwest;rotatable=0;fontColor=#ffffff;" vertex="1" parent="Y0JHzA9AIyb3mTdg3rmq-88">
          <mxGeometry y="30" width="190" height="30" as="geometry" />
        </mxCell>
        <mxCell id="Y0JHzA9AIyb3mTdg3rmq-90" value="Nombre1_Cliente" style="text;strokeColor=none;fillColor=none;align=left;verticalAlign=middle;spacingLeft=4;spacingRight=4;overflow=hidden;points=[[0,0.5],[1,0.5]];portConstraint=eastwest;rotatable=0;" vertex="1" parent="Y0JHzA9AIyb3mTdg3rmq-88">
          <mxGeometry y="60" width="190" height="30" as="geometry" />
        </mxCell>
        <mxCell id="Y0JHzA9AIyb3mTdg3rmq-91" value="Nombre2_Cliente" style="text;strokeColor=none;fillColor=none;align=left;verticalAlign=middle;spacingLeft=4;spacingRight=4;overflow=hidden;points=[[0,0.5],[1,0.5]];portConstraint=eastwest;rotatable=0;" vertex="1" parent="Y0JHzA9AIyb3mTdg3rmq-88">
          <mxGeometry y="90" width="190" height="30" as="geometry" />
        </mxCell>
        <mxCell id="Y0JHzA9AIyb3mTdg3rmq-92" value="Apellido1_Cliente" style="text;strokeColor=none;fillColor=none;align=left;verticalAlign=middle;spacingLeft=4;spacingRight=4;overflow=hidden;points=[[0,0.5],[1,0.5]];portConstraint=eastwest;rotatable=0;" vertex="1" parent="Y0JHzA9AIyb3mTdg3rmq-88">
          <mxGeometry y="120" width="190" height="30" as="geometry" />
        </mxCell>
        <mxCell id="Y0JHzA9AIyb3mTdg3rmq-93" value="Apellido2_Cliente" style="text;strokeColor=none;fillColor=none;align=left;verticalAlign=middle;spacingLeft=4;spacingRight=4;overflow=hidden;points=[[0,0.5],[1,0.5]];portConstraint=eastwest;rotatable=0;" vertex="1" parent="Y0JHzA9AIyb3mTdg3rmq-88">
          <mxGeometry y="150" width="190" height="30" as="geometry" />
        </mxCell>
        <mxCell id="Y0JHzA9AIyb3mTdg3rmq-94" value="DIreccion_Cliente" style="text;strokeColor=none;fillColor=none;align=left;verticalAlign=middle;spacingLeft=4;spacingRight=4;overflow=hidden;points=[[0,0.5],[1,0.5]];portConstraint=eastwest;rotatable=0;" vertex="1" parent="Y0JHzA9AIyb3mTdg3rmq-88">
          <mxGeometry y="180" width="190" height="30" as="geometry" />
        </mxCell>
        <mxCell id="Y0JHzA9AIyb3mTdg3rmq-95" value="Email_Cliente" style="text;strokeColor=none;fillColor=none;align=left;verticalAlign=middle;spacingLeft=4;spacingRight=4;overflow=hidden;points=[[0,0.5],[1,0.5]];portConstraint=eastwest;rotatable=0;" vertex="1" parent="Y0JHzA9AIyb3mTdg3rmq-88">
          <mxGeometry y="210" width="190" height="30" as="geometry" />
        </mxCell>
        <mxCell id="Y0JHzA9AIyb3mTdg3rmq-96" value="Telefono_Cliente" style="text;strokeColor=none;fillColor=none;align=left;verticalAlign=middle;spacingLeft=4;spacingRight=4;overflow=hidden;points=[[0,0.5],[1,0.5]];portConstraint=eastwest;rotatable=0;" vertex="1" parent="Y0JHzA9AIyb3mTdg3rmq-88">
          <mxGeometry y="240" width="190" height="30" as="geometry" />
        </mxCell>
        <mxCell id="Y0JHzA9AIyb3mTdg3rmq-52" value="CATEGORIAS" style="swimlane;fontStyle=0;childLayout=stackLayout;horizontal=1;startSize=30;horizontalStack=0;resizeParent=1;resizeParentMax=0;resizeLast=0;collapsible=1;marginBottom=0;fillColor=none;gradientColor=default;" vertex="1" collapsed="1" parent="1">
          <mxGeometry x="400" y="470" width="180" height="30" as="geometry">
            <mxRectangle x="570" y="700" width="190" height="90" as="alternateBounds" />
          </mxGeometry>
        </mxCell>
        <mxCell id="Y0JHzA9AIyb3mTdg3rmq-53" value="ID_Categoria" style="text;strokeColor=#82b366;fillColor=#d5e8d4;align=left;verticalAlign=middle;spacingLeft=4;spacingRight=4;overflow=hidden;points=[[0,0.5],[1,0.5]];portConstraint=eastwest;rotatable=0;" vertex="1" parent="Y0JHzA9AIyb3mTdg3rmq-52">
          <mxGeometry y="30" width="190" height="30" as="geometry" />
        </mxCell>
        <mxCell id="Y0JHzA9AIyb3mTdg3rmq-54" value="Des_Categoria" style="text;strokeColor=none;fillColor=none;align=left;verticalAlign=middle;spacingLeft=4;spacingRight=4;overflow=hidden;points=[[0,0.5],[1,0.5]];portConstraint=eastwest;rotatable=0;" vertex="1" parent="Y0JHzA9AIyb3mTdg3rmq-52">
          <mxGeometry y="60" width="190" height="30" as="geometry" />
        </mxCell>
        <mxCell id="Y0JHzA9AIyb3mTdg3rmq-58" value="DetalleFactura" style="swimlane;fontStyle=0;childLayout=stackLayout;horizontal=1;startSize=30;horizontalStack=0;resizeParent=1;resizeParentMax=0;resizeLast=0;collapsible=1;marginBottom=0;fillColor=none;gradientColor=default;" vertex="1" collapsed="1" parent="1">
          <mxGeometry x="400" y="400" width="180" height="30" as="geometry">
            <mxRectangle x="590" y="860" width="190" height="240" as="alternateBounds" />
          </mxGeometry>
        </mxCell>
        <mxCell id="Y0JHzA9AIyb3mTdg3rmq-59" value="ID_Detalle" style="text;strokeColor=none;fillColor=none;align=left;verticalAlign=middle;spacingLeft=4;spacingRight=4;overflow=hidden;points=[[0,0.5],[1,0.5]];portConstraint=eastwest;rotatable=0;" vertex="1" parent="Y0JHzA9AIyb3mTdg3rmq-58">
          <mxGeometry y="30" width="190" height="30" as="geometry" />
        </mxCell>
        <mxCell id="Y0JHzA9AIyb3mTdg3rmq-61" value="ID_Factura" style="text;strokeColor=#b85450;fillColor=#f8cecc;align=left;verticalAlign=middle;spacingLeft=4;spacingRight=4;overflow=hidden;points=[[0,0.5],[1,0.5]];portConstraint=eastwest;rotatable=0;" vertex="1" parent="Y0JHzA9AIyb3mTdg3rmq-58">
          <mxGeometry y="60" width="190" height="30" as="geometry" />
        </mxCell>
        <mxCell id="Y0JHzA9AIyb3mTdg3rmq-62" value="ID_Producto" style="text;strokeColor=#d6b656;fillColor=#fff2cc;align=left;verticalAlign=middle;spacingLeft=4;spacingRight=4;overflow=hidden;points=[[0,0.5],[1,0.5]];portConstraint=eastwest;rotatable=0;" vertex="1" parent="Y0JHzA9AIyb3mTdg3rmq-58">
          <mxGeometry y="90" width="190" height="30" as="geometry" />
        </mxCell>
        <mxCell id="Y0JHzA9AIyb3mTdg3rmq-63" value="Cantidad" style="text;strokeColor=none;fillColor=none;align=left;verticalAlign=middle;spacingLeft=4;spacingRight=4;overflow=hidden;points=[[0,0.5],[1,0.5]];portConstraint=eastwest;rotatable=0;" vertex="1" parent="Y0JHzA9AIyb3mTdg3rmq-58">
          <mxGeometry y="120" width="190" height="30" as="geometry" />
        </mxCell>
        <mxCell id="Y0JHzA9AIyb3mTdg3rmq-65" value="PrecioUnit" style="text;strokeColor=none;fillColor=none;align=left;verticalAlign=middle;spacingLeft=4;spacingRight=4;overflow=hidden;points=[[0,0.5],[1,0.5]];portConstraint=eastwest;rotatable=0;" vertex="1" parent="Y0JHzA9AIyb3mTdg3rmq-58">
          <mxGeometry y="150" width="190" height="30" as="geometry" />
        </mxCell>
        <mxCell id="Y0JHzA9AIyb3mTdg3rmq-64" value="ValorIVA" style="text;strokeColor=none;fillColor=none;align=left;verticalAlign=middle;spacingLeft=4;spacingRight=4;overflow=hidden;points=[[0,0.5],[1,0.5]];portConstraint=eastwest;rotatable=0;" vertex="1" parent="Y0JHzA9AIyb3mTdg3rmq-58">
          <mxGeometry y="180" width="190" height="30" as="geometry" />
        </mxCell>
        <mxCell id="Y0JHzA9AIyb3mTdg3rmq-68" value="ID_Usuario" style="text;strokeColor=#9673a6;fillColor=#e1d5e7;align=left;verticalAlign=middle;spacingLeft=4;spacingRight=4;overflow=hidden;points=[[0,0.5],[1,0.5]];portConstraint=eastwest;rotatable=0;" vertex="1" parent="Y0JHzA9AIyb3mTdg3rmq-58">
          <mxGeometry y="210" width="190" height="30" as="geometry" />
        </mxCell>
        <mxCell id="Y0JHzA9AIyb3mTdg3rmq-81" value="" style="endArrow=none;dashed=1;html=1;dashPattern=1 3;strokeWidth=2;rounded=0;exitX=1;exitY=0.5;exitDx=0;exitDy=0;entryX=0;entryY=0.5;entryDx=0;entryDy=0;" edge="1" parent="1" source="Y0JHzA9AIyb3mTdg3rmq-32" target="Y0JHzA9AIyb3mTdg3rmq-22">
          <mxGeometry width="50" height="50" relative="1" as="geometry">
            <mxPoint x="230" y="480" as="sourcePoint" />
            <mxPoint x="280" y="430" as="targetPoint" />
          </mxGeometry>
        </mxCell>
        <mxCell id="Y0JHzA9AIyb3mTdg3rmq-82" value="" style="endArrow=none;html=1;rounded=0;entryX=1;entryY=0.25;entryDx=0;entryDy=0;exitX=1;exitY=0.75;exitDx=0;exitDy=0;" edge="1" parent="1" source="Y0JHzA9AIyb3mTdg3rmq-32" target="Y0JHzA9AIyb3mTdg3rmq-32">
          <mxGeometry width="50" height="50" relative="1" as="geometry">
            <mxPoint x="340" y="550" as="sourcePoint" />
            <mxPoint x="390" y="500" as="targetPoint" />
            <Array as="points">
              <mxPoint x="240" y="315" />
            </Array>
          </mxGeometry>
        </mxCell>
        <mxCell id="Y0JHzA9AIyb3mTdg3rmq-85" value="" style="endArrow=none;html=1;rounded=0;" edge="1" parent="1">
          <mxGeometry width="50" height="50" relative="1" as="geometry">
            <mxPoint x="380" y="330" as="sourcePoint" />
            <mxPoint x="380" y="300" as="targetPoint" />
            <Array as="points">
              <mxPoint x="380" y="310" />
            </Array>
          </mxGeometry>
        </mxCell>
        <mxCell id="Y0JHzA9AIyb3mTdg3rmq-86" value="" style="endArrow=none;html=1;rounded=0;" edge="1" parent="1">
          <mxGeometry width="50" height="50" relative="1" as="geometry">
            <mxPoint x="390" y="330" as="sourcePoint" />
            <mxPoint x="390" y="300" as="targetPoint" />
            <Array as="points" />
          </mxGeometry>
        </mxCell>
        <mxCell id="Y0JHzA9AIyb3mTdg3rmq-87" value="" style="endArrow=none;html=1;rounded=0;" edge="1" parent="1">
          <mxGeometry width="50" height="50" relative="1" as="geometry">
            <mxPoint x="240" y="330" as="sourcePoint" />
            <mxPoint x="240" y="300" as="targetPoint" />
            <Array as="points">
              <mxPoint x="240" y="310" />
            </Array>
          </mxGeometry>
        </mxCell>
        <mxCell id="Y0JHzA9AIyb3mTdg3rmq-106" value="FACTURA" style="swimlane;fontStyle=0;childLayout=stackLayout;horizontal=1;startSize=30;horizontalStack=0;resizeParent=1;resizeParentMax=0;resizeLast=0;collapsible=1;marginBottom=0;fillColor=none;gradientColor=default;" vertex="1" collapsed="1" parent="1">
          <mxGeometry x="50" y="400" width="165" height="30" as="geometry">
            <mxRectangle x="20" y="730" width="190" height="180" as="alternateBounds" />
          </mxGeometry>
        </mxCell>
        <mxCell id="Y0JHzA9AIyb3mTdg3rmq-107" value="ID_Factura" style="text;strokeColor=#b85450;fillColor=#f8cecc;align=left;verticalAlign=middle;spacingLeft=4;spacingRight=4;overflow=hidden;points=[[0,0.5],[1,0.5]];portConstraint=eastwest;rotatable=0;" vertex="1" parent="Y0JHzA9AIyb3mTdg3rmq-106">
          <mxGeometry y="30" width="190" height="30" as="geometry" />
        </mxCell>
        <mxCell id="Y0JHzA9AIyb3mTdg3rmq-108" value="Fecha_Factura" style="text;strokeColor=none;fillColor=none;align=left;verticalAlign=middle;spacingLeft=4;spacingRight=4;overflow=hidden;points=[[0,0.5],[1,0.5]];portConstraint=eastwest;rotatable=0;" vertex="1" parent="Y0JHzA9AIyb3mTdg3rmq-106">
          <mxGeometry y="60" width="190" height="30" as="geometry" />
        </mxCell>
        <mxCell id="Y0JHzA9AIyb3mTdg3rmq-109" value="ID_Cliente" style="text;strokeColor=#001DBC;fillColor=#0050ef;align=left;verticalAlign=middle;spacingLeft=4;spacingRight=4;overflow=hidden;points=[[0,0.5],[1,0.5]];portConstraint=eastwest;rotatable=0;fontColor=#ffffff;" vertex="1" parent="Y0JHzA9AIyb3mTdg3rmq-106">
          <mxGeometry y="90" width="190" height="30" as="geometry" />
        </mxCell>
        <mxCell id="Y0JHzA9AIyb3mTdg3rmq-110" value="Total_Factura" style="text;strokeColor=none;fillColor=none;align=left;verticalAlign=middle;spacingLeft=4;spacingRight=4;overflow=hidden;points=[[0,0.5],[1,0.5]];portConstraint=eastwest;rotatable=0;" vertex="1" parent="Y0JHzA9AIyb3mTdg3rmq-106">
          <mxGeometry y="120" width="190" height="30" as="geometry" />
        </mxCell>
        <mxCell id="Y0JHzA9AIyb3mTdg3rmq-111" value="Estado_Factura" style="text;strokeColor=none;fillColor=none;align=left;verticalAlign=middle;spacingLeft=4;spacingRight=4;overflow=hidden;points=[[0,0.5],[1,0.5]];portConstraint=eastwest;rotatable=0;" vertex="1" parent="Y0JHzA9AIyb3mTdg3rmq-106">
          <mxGeometry y="150" width="190" height="30" as="geometry" />
        </mxCell>
        <mxCell id="Y0JHzA9AIyb3mTdg3rmq-112" value="" style="endArrow=none;dashed=1;html=1;dashPattern=1 3;strokeWidth=2;rounded=0;exitX=1;exitY=0.5;exitDx=0;exitDy=0;entryX=0;entryY=0.5;entryDx=0;entryDy=0;" edge="1" parent="1" source="Y0JHzA9AIyb3mTdg3rmq-106" target="Y0JHzA9AIyb3mTdg3rmq-58">
          <mxGeometry width="50" height="50" relative="1" as="geometry">
            <mxPoint x="224.9999999999999" y="325" as="sourcePoint" />
            <mxPoint x="410" y="325" as="targetPoint" />
          </mxGeometry>
        </mxCell>
        <mxCell id="Y0JHzA9AIyb3mTdg3rmq-113" value="" style="endArrow=none;html=1;rounded=0;" edge="1" parent="1">
          <mxGeometry width="50" height="50" relative="1" as="geometry">
            <mxPoint x="370" y="430" as="sourcePoint" />
            <mxPoint x="370" y="400" as="targetPoint" />
          </mxGeometry>
        </mxCell>
        <mxCell id="Y0JHzA9AIyb3mTdg3rmq-114" value="" style="endArrow=none;html=1;rounded=0;exitX=0;exitY=1;exitDx=0;exitDy=0;" edge="1" parent="1" source="Y0JHzA9AIyb3mTdg3rmq-58">
          <mxGeometry width="50" height="50" relative="1" as="geometry">
            <mxPoint x="224.9999999999999" y="332.5" as="sourcePoint" />
            <mxPoint x="400" y="400" as="targetPoint" />
            <Array as="points">
              <mxPoint x="370" y="415" />
            </Array>
          </mxGeometry>
        </mxCell>
        <mxCell id="Y0JHzA9AIyb3mTdg3rmq-116" value="" style="endArrow=none;html=1;rounded=0;" edge="1" parent="1">
          <mxGeometry width="50" height="50" relative="1" as="geometry">
            <mxPoint x="240" y="430" as="sourcePoint" />
            <mxPoint x="240" y="400" as="targetPoint" />
            <Array as="points" />
          </mxGeometry>
        </mxCell>
        <mxCell id="Y0JHzA9AIyb3mTdg3rmq-118" value="" style="endArrow=none;html=1;rounded=0;" edge="1" parent="1">
          <mxGeometry width="50" height="50" relative="1" as="geometry">
            <mxPoint x="230" y="430" as="sourcePoint" />
            <mxPoint x="230" y="400" as="targetPoint" />
            <Array as="points" />
          </mxGeometry>
        </mxCell>
        <mxCell id="Y0JHzA9AIyb3mTdg3rmq-120" value="" style="endArrow=none;dashed=1;html=1;dashPattern=1 3;strokeWidth=2;rounded=0;exitX=1;exitY=0.5;exitDx=0;exitDy=0;entryX=0;entryY=0.5;entryDx=0;entryDy=0;" edge="1" parent="1">
          <mxGeometry width="50" height="50" relative="1" as="geometry">
            <mxPoint x="214.9999999999999" y="484.57" as="sourcePoint" />
            <mxPoint x="400" y="484.57" as="targetPoint" />
          </mxGeometry>
        </mxCell>
        <mxCell id="Y0JHzA9AIyb3mTdg3rmq-121" value="" style="endArrow=none;html=1;rounded=0;" edge="1" parent="1">
          <mxGeometry width="50" height="50" relative="1" as="geometry">
            <mxPoint x="240.0000000000001" y="500" as="sourcePoint" />
            <mxPoint x="240.0000000000001" y="470" as="targetPoint" />
          </mxGeometry>
        </mxCell>
        <mxCell id="Y0JHzA9AIyb3mTdg3rmq-122" value="" style="endArrow=none;html=1;rounded=0;" edge="1" parent="1">
          <mxGeometry width="50" height="50" relative="1" as="geometry">
            <mxPoint x="380.0000000000001" y="500" as="sourcePoint" />
            <mxPoint x="380.0000000000001" y="470" as="targetPoint" />
          </mxGeometry>
        </mxCell>
        <mxCell id="Y0JHzA9AIyb3mTdg3rmq-123" value="" style="endArrow=none;html=1;rounded=0;" edge="1" parent="1">
          <mxGeometry width="50" height="50" relative="1" as="geometry">
            <mxPoint x="390.0000000000001" y="500" as="sourcePoint" />
            <mxPoint x="390.0000000000001" y="470" as="targetPoint" />
          </mxGeometry>
        </mxCell>
        <mxCell id="Y0JHzA9AIyb3mTdg3rmq-125" value="" style="endArrow=none;html=1;rounded=0;exitX=1;exitY=1;exitDx=0;exitDy=0;entryX=1;entryY=0;entryDx=0;entryDy=0;" edge="1" parent="1" source="Y0JHzA9AIyb3mTdg3rmq-41" target="Y0JHzA9AIyb3mTdg3rmq-41">
          <mxGeometry width="50" height="50" relative="1" as="geometry">
            <mxPoint x="410" y="440" as="sourcePoint" />
            <mxPoint x="410" y="410" as="targetPoint" />
            <Array as="points">
              <mxPoint x="240" y="485" />
            </Array>
          </mxGeometry>
        </mxCell>
        <mxCell id="Y0JHzA9AIyb3mTdg3rmq-126" value="Producto" style="swimlane;fontStyle=0;childLayout=stackLayout;horizontal=1;startSize=30;horizontalStack=0;resizeParent=1;resizeParentMax=0;resizeLast=0;collapsible=1;marginBottom=0;fillColor=none;gradientColor=default;" vertex="1" collapsed="1" parent="1">
          <mxGeometry x="50" y="540" width="165" height="30" as="geometry">
            <mxRectangle x="40" y="880" width="190" height="210" as="alternateBounds" />
          </mxGeometry>
        </mxCell>
        <mxCell id="Y0JHzA9AIyb3mTdg3rmq-127" value="ID_Producto" style="text;strokeColor=#d6b656;fillColor=#fff2cc;align=left;verticalAlign=middle;spacingLeft=4;spacingRight=4;overflow=hidden;points=[[0,0.5],[1,0.5]];portConstraint=eastwest;rotatable=0;" vertex="1" parent="Y0JHzA9AIyb3mTdg3rmq-126">
          <mxGeometry y="30" width="190" height="30" as="geometry" />
        </mxCell>
        <mxCell id="Y0JHzA9AIyb3mTdg3rmq-128" value="Nombre_Producto" style="text;strokeColor=none;fillColor=none;align=left;verticalAlign=middle;spacingLeft=4;spacingRight=4;overflow=hidden;points=[[0,0.5],[1,0.5]];portConstraint=eastwest;rotatable=0;" vertex="1" parent="Y0JHzA9AIyb3mTdg3rmq-126">
          <mxGeometry y="60" width="190" height="30" as="geometry" />
        </mxCell>
        <mxCell id="Y0JHzA9AIyb3mTdg3rmq-129" value="Precio_Producto" style="text;strokeColor=none;fillColor=none;align=left;verticalAlign=middle;spacingLeft=4;spacingRight=4;overflow=hidden;points=[[0,0.5],[1,0.5]];portConstraint=eastwest;rotatable=0;" vertex="1" parent="Y0JHzA9AIyb3mTdg3rmq-126">
          <mxGeometry y="90" width="190" height="30" as="geometry" />
        </mxCell>
        <mxCell id="Y0JHzA9AIyb3mTdg3rmq-130" value="Stock_Producto" style="text;strokeColor=none;fillColor=none;align=left;verticalAlign=middle;spacingLeft=4;spacingRight=4;overflow=hidden;points=[[0,0.5],[1,0.5]];portConstraint=eastwest;rotatable=0;" vertex="1" parent="Y0JHzA9AIyb3mTdg3rmq-126">
          <mxGeometry y="120" width="190" height="30" as="geometry" />
        </mxCell>
        <mxCell id="Y0JHzA9AIyb3mTdg3rmq-131" value="IVA_Producto" style="text;strokeColor=none;fillColor=none;align=left;verticalAlign=middle;spacingLeft=4;spacingRight=4;overflow=hidden;points=[[0,0.5],[1,0.5]];portConstraint=eastwest;rotatable=0;" vertex="1" parent="Y0JHzA9AIyb3mTdg3rmq-126">
          <mxGeometry y="150" width="190" height="30" as="geometry" />
        </mxCell>
        <mxCell id="Y0JHzA9AIyb3mTdg3rmq-132" value="ID_Categoria" style="text;strokeColor=#82b366;fillColor=#d5e8d4;align=left;verticalAlign=middle;spacingLeft=4;spacingRight=4;overflow=hidden;points=[[0,0.5],[1,0.5]];portConstraint=eastwest;rotatable=0;" vertex="1" parent="Y0JHzA9AIyb3mTdg3rmq-126">
          <mxGeometry y="180" width="190" height="30" as="geometry" />
        </mxCell>
        <mxCell id="Y0JHzA9AIyb3mTdg3rmq-133" value="CLIENTES" style="swimlane;fontStyle=0;childLayout=stackLayout;horizontal=1;startSize=30;horizontalStack=0;resizeParent=1;resizeParentMax=0;resizeLast=0;collapsible=1;marginBottom=0;fillColor=none;gradientColor=default;" vertex="1" collapsed="1" parent="Y0JHzA9AIyb3mTdg3rmq-126">
          <mxGeometry x="-30" width="180" height="30" as="geometry">
            <mxRectangle x="400" y="300" width="190" height="270" as="alternateBounds" />
          </mxGeometry>
        </mxCell>
        <mxCell id="Y0JHzA9AIyb3mTdg3rmq-134" value="ID_Cliente" style="text;strokeColor=#001DBC;fillColor=#0050ef;align=left;verticalAlign=middle;spacingLeft=4;spacingRight=4;overflow=hidden;points=[[0,0.5],[1,0.5]];portConstraint=eastwest;rotatable=0;fontColor=#ffffff;" vertex="1" parent="Y0JHzA9AIyb3mTdg3rmq-133">
          <mxGeometry y="30" width="190" height="30" as="geometry" />
        </mxCell>
        <mxCell id="Y0JHzA9AIyb3mTdg3rmq-135" value="Nombre1_Cliente" style="text;strokeColor=none;fillColor=none;align=left;verticalAlign=middle;spacingLeft=4;spacingRight=4;overflow=hidden;points=[[0,0.5],[1,0.5]];portConstraint=eastwest;rotatable=0;" vertex="1" parent="Y0JHzA9AIyb3mTdg3rmq-133">
          <mxGeometry y="60" width="190" height="30" as="geometry" />
        </mxCell>
        <mxCell id="Y0JHzA9AIyb3mTdg3rmq-136" value="Nombre2_Cliente" style="text;strokeColor=none;fillColor=none;align=left;verticalAlign=middle;spacingLeft=4;spacingRight=4;overflow=hidden;points=[[0,0.5],[1,0.5]];portConstraint=eastwest;rotatable=0;" vertex="1" parent="Y0JHzA9AIyb3mTdg3rmq-133">
          <mxGeometry y="90" width="190" height="30" as="geometry" />
        </mxCell>
        <mxCell id="Y0JHzA9AIyb3mTdg3rmq-137" value="Apellido1_Cliente" style="text;strokeColor=none;fillColor=none;align=left;verticalAlign=middle;spacingLeft=4;spacingRight=4;overflow=hidden;points=[[0,0.5],[1,0.5]];portConstraint=eastwest;rotatable=0;" vertex="1" parent="Y0JHzA9AIyb3mTdg3rmq-133">
          <mxGeometry y="120" width="190" height="30" as="geometry" />
        </mxCell>
        <mxCell id="Y0JHzA9AIyb3mTdg3rmq-138" value="Apellido2_Cliente" style="text;strokeColor=none;fillColor=none;align=left;verticalAlign=middle;spacingLeft=4;spacingRight=4;overflow=hidden;points=[[0,0.5],[1,0.5]];portConstraint=eastwest;rotatable=0;" vertex="1" parent="Y0JHzA9AIyb3mTdg3rmq-133">
          <mxGeometry y="150" width="190" height="30" as="geometry" />
        </mxCell>
        <mxCell id="Y0JHzA9AIyb3mTdg3rmq-139" value="DIreccion_Cliente" style="text;strokeColor=none;fillColor=none;align=left;verticalAlign=middle;spacingLeft=4;spacingRight=4;overflow=hidden;points=[[0,0.5],[1,0.5]];portConstraint=eastwest;rotatable=0;" vertex="1" parent="Y0JHzA9AIyb3mTdg3rmq-133">
          <mxGeometry y="180" width="190" height="30" as="geometry" />
        </mxCell>
        <mxCell id="Y0JHzA9AIyb3mTdg3rmq-140" value="Email_Cliente" style="text;strokeColor=none;fillColor=none;align=left;verticalAlign=middle;spacingLeft=4;spacingRight=4;overflow=hidden;points=[[0,0.5],[1,0.5]];portConstraint=eastwest;rotatable=0;" vertex="1" parent="Y0JHzA9AIyb3mTdg3rmq-133">
          <mxGeometry y="210" width="190" height="30" as="geometry" />
        </mxCell>
        <mxCell id="Y0JHzA9AIyb3mTdg3rmq-141" value="Telefono_Cliente" style="text;strokeColor=none;fillColor=none;align=left;verticalAlign=middle;spacingLeft=4;spacingRight=4;overflow=hidden;points=[[0,0.5],[1,0.5]];portConstraint=eastwest;rotatable=0;" vertex="1" parent="Y0JHzA9AIyb3mTdg3rmq-133">
          <mxGeometry y="240" width="190" height="30" as="geometry" />
        </mxCell>
        <mxCell id="Y0JHzA9AIyb3mTdg3rmq-142" value="DetalleFactura" style="swimlane;fontStyle=0;childLayout=stackLayout;horizontal=1;startSize=30;horizontalStack=0;resizeParent=1;resizeParentMax=0;resizeLast=0;collapsible=1;marginBottom=0;fillColor=none;gradientColor=default;" vertex="1" collapsed="1" parent="1">
          <mxGeometry x="400" y="540" width="180" height="30" as="geometry">
            <mxRectangle x="590" y="860" width="190" height="240" as="alternateBounds" />
          </mxGeometry>
        </mxCell>
        <mxCell id="Y0JHzA9AIyb3mTdg3rmq-143" value="ID_Detalle" style="text;strokeColor=none;fillColor=none;align=left;verticalAlign=middle;spacingLeft=4;spacingRight=4;overflow=hidden;points=[[0,0.5],[1,0.5]];portConstraint=eastwest;rotatable=0;" vertex="1" parent="Y0JHzA9AIyb3mTdg3rmq-142">
          <mxGeometry y="30" width="190" height="30" as="geometry" />
        </mxCell>
        <mxCell id="Y0JHzA9AIyb3mTdg3rmq-144" value="ID_Factura" style="text;strokeColor=#b85450;fillColor=#f8cecc;align=left;verticalAlign=middle;spacingLeft=4;spacingRight=4;overflow=hidden;points=[[0,0.5],[1,0.5]];portConstraint=eastwest;rotatable=0;" vertex="1" parent="Y0JHzA9AIyb3mTdg3rmq-142">
          <mxGeometry y="60" width="190" height="30" as="geometry" />
        </mxCell>
        <mxCell id="Y0JHzA9AIyb3mTdg3rmq-145" value="ID_Producto" style="text;strokeColor=#d6b656;fillColor=#fff2cc;align=left;verticalAlign=middle;spacingLeft=4;spacingRight=4;overflow=hidden;points=[[0,0.5],[1,0.5]];portConstraint=eastwest;rotatable=0;" vertex="1" parent="Y0JHzA9AIyb3mTdg3rmq-142">
          <mxGeometry y="90" width="190" height="30" as="geometry" />
        </mxCell>
        <mxCell id="Y0JHzA9AIyb3mTdg3rmq-146" value="Cantidad" style="text;strokeColor=none;fillColor=none;align=left;verticalAlign=middle;spacingLeft=4;spacingRight=4;overflow=hidden;points=[[0,0.5],[1,0.5]];portConstraint=eastwest;rotatable=0;" vertex="1" parent="Y0JHzA9AIyb3mTdg3rmq-142">
          <mxGeometry y="120" width="190" height="30" as="geometry" />
        </mxCell>
        <mxCell id="Y0JHzA9AIyb3mTdg3rmq-147" value="PrecioUnit" style="text;strokeColor=none;fillColor=none;align=left;verticalAlign=middle;spacingLeft=4;spacingRight=4;overflow=hidden;points=[[0,0.5],[1,0.5]];portConstraint=eastwest;rotatable=0;" vertex="1" parent="Y0JHzA9AIyb3mTdg3rmq-142">
          <mxGeometry y="150" width="190" height="30" as="geometry" />
        </mxCell>
        <mxCell id="Y0JHzA9AIyb3mTdg3rmq-148" value="ValorIVA" style="text;strokeColor=none;fillColor=none;align=left;verticalAlign=middle;spacingLeft=4;spacingRight=4;overflow=hidden;points=[[0,0.5],[1,0.5]];portConstraint=eastwest;rotatable=0;" vertex="1" parent="Y0JHzA9AIyb3mTdg3rmq-142">
          <mxGeometry y="180" width="190" height="30" as="geometry" />
        </mxCell>
        <mxCell id="Y0JHzA9AIyb3mTdg3rmq-149" value="ID_Usuario" style="text;strokeColor=#9673a6;fillColor=#e1d5e7;align=left;verticalAlign=middle;spacingLeft=4;spacingRight=4;overflow=hidden;points=[[0,0.5],[1,0.5]];portConstraint=eastwest;rotatable=0;" vertex="1" parent="Y0JHzA9AIyb3mTdg3rmq-142">
          <mxGeometry y="210" width="190" height="30" as="geometry" />
        </mxCell>
        <mxCell id="Y0JHzA9AIyb3mTdg3rmq-150" value="" style="endArrow=none;dashed=1;html=1;dashPattern=1 3;strokeWidth=2;rounded=0;exitX=1;exitY=0.5;exitDx=0;exitDy=0;entryX=0;entryY=0.5;entryDx=0;entryDy=0;" edge="1" parent="1">
          <mxGeometry width="50" height="50" relative="1" as="geometry">
            <mxPoint x="214.9999999999999" y="554.5699999999999" as="sourcePoint" />
            <mxPoint x="400" y="554.5699999999999" as="targetPoint" />
          </mxGeometry>
        </mxCell>
        <mxCell id="Y0JHzA9AIyb3mTdg3rmq-160" value="" style="endArrow=none;html=1;rounded=0;" edge="1" parent="1">
          <mxGeometry width="50" height="50" relative="1" as="geometry">
            <mxPoint x="380.0000000000001" y="570" as="sourcePoint" />
            <mxPoint x="380.0000000000001" y="540" as="targetPoint" />
          </mxGeometry>
        </mxCell>
        <mxCell id="Y0JHzA9AIyb3mTdg3rmq-161" value="" style="endArrow=none;html=1;rounded=0;" edge="1" parent="1">
          <mxGeometry width="50" height="50" relative="1" as="geometry">
            <mxPoint x="370.0000000000001" y="570" as="sourcePoint" />
            <mxPoint x="370.0000000000001" y="540" as="targetPoint" />
          </mxGeometry>
        </mxCell>
        <mxCell id="Y0JHzA9AIyb3mTdg3rmq-162" value="" style="endArrow=none;html=1;rounded=0;" edge="1" parent="1">
          <mxGeometry width="50" height="50" relative="1" as="geometry">
            <mxPoint x="240.0000000000001" y="570" as="sourcePoint" />
            <mxPoint x="240.0000000000001" y="540" as="targetPoint" />
          </mxGeometry>
        </mxCell>
        <mxCell id="Y0JHzA9AIyb3mTdg3rmq-163" value="" style="endArrow=none;html=1;rounded=0;entryX=1;entryY=0;entryDx=0;entryDy=0;exitX=1;exitY=1;exitDx=0;exitDy=0;" edge="1" parent="1" source="Y0JHzA9AIyb3mTdg3rmq-126" target="Y0JHzA9AIyb3mTdg3rmq-126">
          <mxGeometry width="50" height="50" relative="1" as="geometry">
            <mxPoint x="220" y="570" as="sourcePoint" />
            <mxPoint x="224.9999999999999" y="480" as="targetPoint" />
            <Array as="points">
              <mxPoint x="240" y="555" />
            </Array>
          </mxGeometry>
        </mxCell>
      </root>
    </mxGraphModel>
  </diagram>
</mxfile>
